<svg width="102" height="25" viewBox="0 0 102 25" fill="none" xmlns="http://www.w3.org/2000/svg">
<path d="M0 12.5C0 5.59644 5.59644 0 12.5 0H89.5C96.4036 0 102 5.59644 102 12.5C102 19.4036 96.4036 25 89.5 25H12.5C5.59644 25 0 19.4036 0 12.5Z" fill="black" fill-opacity="0.2"/>
<path d="M13.008 10.4C13.7227 10.4 14.2827 10.5707 14.688 10.912C15.0933 11.2533 15.296 11.7227 15.296 12.32C15.296 12.9173 15.0933 13.3867 14.688 13.728C14.2827 14.064 13.7227 14.232 13.008 14.232H11.504V16H10.912V10.4H13.008ZM12.992 13.712C13.5467 13.712 13.9707 13.592 14.264 13.352C14.5573 13.1067 14.704 12.7627 14.704 12.32C14.704 11.8667 14.5573 11.52 14.264 11.28C13.9707 11.0347 13.5467 10.912 12.992 10.912H11.504V13.712H12.992ZM22.2561 10.4V16H21.6721V13.416H18.1681V16H17.5761V10.4H18.1681V12.896H21.6721V10.4H22.2561ZM27.5319 16.048C26.9772 16.048 26.4732 15.9253 26.0199 15.68C25.5719 15.4293 25.2199 15.088 24.9639 14.656C24.7132 14.224 24.5879 13.7387 24.5879 13.2C24.5879 12.6613 24.7132 12.176 24.9639 11.744C25.2199 11.312 25.5719 10.9733 26.0199 10.728C26.4732 10.4773 26.9772 10.352 27.5319 10.352C28.0865 10.352 28.5852 10.4747 29.0279 10.72C29.4759 10.9653 29.8279 11.3067 30.0839 11.744C30.3399 12.176 30.4679 12.6613 30.4679 13.2C30.4679 13.7387 30.3399 14.2267 30.0839 14.664C29.8279 15.096 29.4759 15.4347 29.0279 15.68C28.5852 15.9253 28.0865 16.048 27.5319 16.048ZM27.5319 15.52C27.9745 15.52 28.3745 15.4213 28.7319 15.224C29.0892 15.0213 29.3692 14.744 29.5719 14.392C29.7745 14.0347 29.8759 13.6373 29.8759 13.2C29.8759 12.7627 29.7745 12.368 29.5719 12.016C29.3692 11.6587 29.0892 11.3813 28.7319 11.184C28.3745 10.9813 27.9745 10.88 27.5319 10.88C27.0892 10.88 26.6865 10.9813 26.3239 11.184C25.9665 11.3813 25.6839 11.6587 25.4759 12.016C25.2732 12.368 25.1719 12.7627 25.1719 13.2C25.1719 13.6373 25.2732 14.0347 25.4759 14.392C25.6839 14.744 25.9665 15.0213 26.3239 15.224C26.6865 15.4213 27.0892 15.52 27.5319 15.52ZM33.8047 10.912H31.8367V10.4H36.3647V10.912H34.3967V16H33.8047V10.912ZM40.6803 16.048C40.1256 16.048 39.6216 15.9253 39.1683 15.68C38.7203 15.4293 38.3683 15.088 38.1123 14.656C37.8616 14.224 37.7363 13.7387 37.7363 13.2C37.7363 12.6613 37.8616 12.176 38.1123 11.744C38.3683 11.312 38.7203 10.9733 39.1683 10.728C39.6216 10.4773 40.1256 10.352 40.6803 10.352C41.235 10.352 41.7336 10.4747 42.1763 10.72C42.6243 10.9653 42.9763 11.3067 43.2323 11.744C43.4883 12.176 43.6163 12.6613 43.6163 13.2C43.6163 13.7387 43.4883 14.2267 43.2323 14.664C42.9763 15.096 42.6243 15.4347 42.1763 15.68C41.7336 15.9253 41.235 16.048 40.6803 16.048ZM40.6803 15.52C41.123 15.52 41.523 15.4213 41.8803 15.224C42.2376 15.0213 42.5176 14.744 42.7203 14.392C42.923 14.0347 43.0243 13.6373 43.0243 13.2C43.0243 12.7627 42.923 12.368 42.7203 12.016C42.5176 11.6587 42.2376 11.3813 41.8803 11.184C41.523 10.9813 41.123 10.88 40.6803 10.88C40.2376 10.88 39.835 10.9813 39.4723 11.184C39.115 11.3813 38.8323 11.6587 38.6243 12.016C38.4216 12.368 38.3203 12.7627 38.3203 13.2C38.3203 13.6373 38.4216 14.0347 38.6243 14.392C38.8323 14.744 39.115 15.0213 39.4723 15.224C39.835 15.4213 40.2376 15.52 40.6803 15.52ZM49.8873 13.2H50.4553V15.336C50.1939 15.5653 49.8846 15.7413 49.5273 15.864C49.1699 15.9867 48.7939 16.048 48.3993 16.048C47.8393 16.048 47.3353 15.9253 46.8873 15.68C46.4393 15.4347 46.0873 15.096 45.8313 14.664C45.5753 14.2267 45.4473 13.7387 45.4473 13.2C45.4473 12.6613 45.5753 12.176 45.8313 11.744C46.0873 11.3067 46.4393 10.9653 46.8873 10.72C47.3353 10.4747 47.8419 10.352 48.4073 10.352C48.8339 10.352 49.2259 10.4213 49.5833 10.56C49.9406 10.6933 50.2419 10.8933 50.4873 11.16L50.1193 11.536C49.6766 11.0987 49.1139 10.88 48.4313 10.88C47.9779 10.88 47.5673 10.9813 47.1993 11.184C46.8366 11.3813 46.5513 11.6587 46.3433 12.016C46.1353 12.368 46.0312 12.7627 46.0312 13.2C46.0312 13.6373 46.1353 14.032 46.3433 14.384C46.5513 14.736 46.8366 15.0133 47.1993 15.216C47.5619 15.4187 47.9699 15.52 48.4233 15.52C48.9993 15.52 49.4873 15.376 49.8873 15.088V13.2ZM56.9548 16L55.6748 14.2C55.5308 14.216 55.3814 14.224 55.2268 14.224H53.7228V16H53.1308V10.4H55.2268C55.9414 10.4 56.5014 10.5707 56.9068 10.912C57.3121 11.2533 57.5148 11.7227 57.5148 12.32C57.5148 12.7573 57.4028 13.128 57.1788 13.432C56.9601 13.7307 56.6454 13.9467 56.2348 14.08L57.6028 16H56.9548ZM55.2108 13.72C55.7654 13.72 56.1894 13.5973 56.4828 13.352C56.7761 13.1067 56.9227 12.7627 56.9227 12.32C56.9227 11.8667 56.7761 11.52 56.4828 11.28C56.1894 11.0347 55.7654 10.912 55.2108 10.912H53.7228V13.72H55.2108ZM63.424 14.504H60.304L59.632 16H59.016L61.576 10.4H62.16L64.72 16H64.096L63.424 14.504ZM63.208 14.024L61.864 11.016L60.52 14.024H63.208ZM68.7424 10.4C69.457 10.4 70.017 10.5707 70.4224 10.912C70.8277 11.2533 71.0304 11.7227 71.0304 12.32C71.0304 12.9173 70.8277 13.3867 70.4224 13.728C70.017 14.064 69.457 14.232 68.7424 14.232H67.2384V16H66.6464V10.4H68.7424ZM68.7264 13.712C69.281 13.712 69.705 13.592 69.9984 13.352C70.2917 13.1067 70.4384 12.7627 70.4384 12.32C70.4384 11.8667 70.2917 11.52 69.9984 11.28C69.705 11.0347 69.281 10.912 68.7264 10.912H67.2384V13.712H68.7264ZM77.9904 10.4V16H77.4064V13.416H73.9024V16H73.3104V10.4H73.9024V12.896H77.4064V10.4H77.9904ZM82.7383 14.064V16H82.1543V14.064L79.9143 10.4H80.5463L82.4663 13.544L84.3863 10.4H84.9783L82.7383 14.064Z" fill="white"/>
</svg>
