<svg width="60" height="25" viewBox="0 0 60 25" fill="none" xmlns="http://www.w3.org/2000/svg">
<path d="M0 12.5C0 5.59644 5.59644 0 12.5 0H47.5C54.4036 0 60 5.59644 60 12.5C60 19.4036 54.4036 25 47.5 25H12.5C5.59644 25 0 19.4036 0 12.5Z" fill="black" fill-opacity="0.2"/>
<path d="M12 10.912H10.032V10.4H14.56V10.912H12.592V16H12V10.912ZM20.3298 16L19.0498 14.2C18.9058 14.216 18.7564 14.224 18.6018 14.224H17.0978V16H16.5058V10.4H18.6018C19.3164 10.4 19.8764 10.5707 20.2818 10.912C20.6871 11.2533 20.8898 11.7227 20.8898 12.32C20.8898 12.7573 20.7778 13.128 20.5538 13.432C20.3351 13.7307 20.0204 13.9467 19.6098 14.08L20.9778 16H20.3298ZM18.5858 13.72C19.1404 13.72 19.5644 13.5973 19.8578 13.352C20.1511 13.1067 20.2977 12.7627 20.2977 12.32C20.2977 11.8667 20.1511 11.52 19.8578 11.28C19.5644 11.0347 19.1404 10.912 18.5858 10.912H17.0978V13.72H18.5858ZM26.799 14.504H23.679L23.007 16H22.391L24.951 10.4H25.535L28.095 16H27.471L26.799 14.504ZM26.583 14.024L25.239 11.016L23.895 14.024H26.583ZM34.3883 10.4L31.9083 16H31.3243L28.8443 10.4H29.4843L31.6283 15.264L33.7883 10.4H34.3883ZM40.1611 15.488V16H36.2011V10.4H40.0411V10.912H36.7931V12.904H39.6891V13.408H36.7931V15.488H40.1611ZM42.5526 10.4H43.1446V15.488H46.2806V16H42.5526V10.4Z" fill="white"/>
</svg>
